<mxfile host="app.diagrams.net" agent="Mozilla/5.0 (Windows NT 10.0; Win64; x64) AppleWebKit/537.36 (KHTML, like Gecko) Chrome/128.0.0.0 Safari/537.36" version="24.7.12">
  <diagram name="PÃ¡gina-1" id="jScPflaqbwN_MJfwuZoi">
    <mxGraphModel dx="2720" dy="1652" grid="0" gridSize="10" guides="1" tooltips="1" connect="1" arrows="1" fold="1" page="0" pageScale="1" pageWidth="827" pageHeight="1169" math="0" shadow="0">
      <root>
        <mxCell id="0" />
        <mxCell id="1" parent="0" />
        <mxCell id="jrNsLkWTCwWAzZKnQkNw-21" value="VEHICULO&lt;div&gt;(abstracta&lt;/div&gt;" style="html=1;whiteSpace=wrap;" vertex="1" parent="1">
          <mxGeometry x="-160" y="-555" width="110" height="50" as="geometry" />
        </mxCell>
        <mxCell id="jrNsLkWTCwWAzZKnQkNw-24" value="CARRERA" style="html=1;whiteSpace=wrap;" vertex="1" parent="1">
          <mxGeometry x="-236" y="-449" width="110" height="50" as="geometry" />
        </mxCell>
        <mxCell id="jrNsLkWTCwWAzZKnQkNw-51" style="edgeStyle=orthogonalEdgeStyle;rounded=0;orthogonalLoop=1;jettySize=auto;html=1;exitX=1;exitY=1;exitDx=0;exitDy=0;entryX=0;entryY=0;entryDx=0;entryDy=0;" edge="1" parent="1" source="jrNsLkWTCwWAzZKnQkNw-25" target="jrNsLkWTCwWAzZKnQkNw-36">
          <mxGeometry relative="1" as="geometry">
            <Array as="points">
              <mxPoint x="369" y="-399" />
            </Array>
          </mxGeometry>
        </mxCell>
        <mxCell id="jrNsLkWTCwWAzZKnQkNw-25" value="TRANSITO" style="html=1;whiteSpace=wrap;" vertex="1" parent="1">
          <mxGeometry x="-75" y="-449" width="110" height="50" as="geometry" />
        </mxCell>
        <mxCell id="jrNsLkWTCwWAzZKnQkNw-26" value="" style="endArrow=block;endSize=16;endFill=0;html=1;rounded=0;fontSize=12;curved=1;entryX=0.5;entryY=1;entryDx=0;entryDy=0;" edge="1" parent="1" target="jrNsLkWTCwWAzZKnQkNw-21">
          <mxGeometry width="160" relative="1" as="geometry">
            <mxPoint x="-185" y="-451" as="sourcePoint" />
            <mxPoint x="-25" y="-451" as="targetPoint" />
          </mxGeometry>
        </mxCell>
        <mxCell id="jrNsLkWTCwWAzZKnQkNw-27" value="" style="endArrow=block;endSize=16;endFill=0;html=1;rounded=0;fontSize=12;curved=1;exitX=0.5;exitY=0;exitDx=0;exitDy=0;" edge="1" parent="1" source="jrNsLkWTCwWAzZKnQkNw-25">
          <mxGeometry width="160" relative="1" as="geometry">
            <mxPoint x="-27" y="-456" as="sourcePoint" />
            <mxPoint x="-96" y="-504" as="targetPoint" />
          </mxGeometry>
        </mxCell>
        <mxCell id="jrNsLkWTCwWAzZKnQkNw-28" value="OBSTACULO&lt;div&gt;(abstracta)&lt;/div&gt;" style="html=1;whiteSpace=wrap;" vertex="1" parent="1">
          <mxGeometry x="380" y="-756" width="110" height="50" as="geometry" />
        </mxCell>
        <mxCell id="jrNsLkWTCwWAzZKnQkNw-29" value="ANCIANA" style="html=1;whiteSpace=wrap;" vertex="1" parent="1">
          <mxGeometry x="249" y="-675" width="110" height="50" as="geometry" />
        </mxCell>
        <mxCell id="jrNsLkWTCwWAzZKnQkNw-30" value="PERRO" style="html=1;whiteSpace=wrap;" vertex="1" parent="1">
          <mxGeometry x="380" y="-663" width="110" height="50" as="geometry" />
        </mxCell>
        <mxCell id="jrNsLkWTCwWAzZKnQkNw-31" value="BACHE" style="html=1;whiteSpace=wrap;" vertex="1" parent="1">
          <mxGeometry x="509" y="-675" width="110" height="50" as="geometry" />
        </mxCell>
        <mxCell id="jrNsLkWTCwWAzZKnQkNw-32" value="" style="endArrow=block;endSize=16;endFill=0;html=1;rounded=0;fontSize=12;curved=1;entryX=0;entryY=1;entryDx=0;entryDy=0;" edge="1" parent="1" target="jrNsLkWTCwWAzZKnQkNw-28">
          <mxGeometry width="160" relative="1" as="geometry">
            <mxPoint x="302" y="-675" as="sourcePoint" />
            <mxPoint x="462" y="-675" as="targetPoint" />
          </mxGeometry>
        </mxCell>
        <mxCell id="jrNsLkWTCwWAzZKnQkNw-34" value="" style="endArrow=block;endSize=16;endFill=0;html=1;rounded=0;fontSize=12;curved=1;entryX=0.5;entryY=1;entryDx=0;entryDy=0;exitX=0.5;exitY=0;exitDx=0;exitDy=0;" edge="1" parent="1" source="jrNsLkWTCwWAzZKnQkNw-30" target="jrNsLkWTCwWAzZKnQkNw-28">
          <mxGeometry width="160" relative="1" as="geometry">
            <mxPoint x="433" y="-676" as="sourcePoint" />
            <mxPoint x="593" y="-676" as="targetPoint" />
          </mxGeometry>
        </mxCell>
        <mxCell id="jrNsLkWTCwWAzZKnQkNw-35" value="" style="endArrow=block;endSize=16;endFill=0;html=1;rounded=0;fontSize=12;curved=1;entryX=1;entryY=1;entryDx=0;entryDy=0;" edge="1" parent="1" target="jrNsLkWTCwWAzZKnQkNw-28">
          <mxGeometry width="160" relative="1" as="geometry">
            <mxPoint x="558" y="-676" as="sourcePoint" />
            <mxPoint x="718" y="-676" as="targetPoint" />
          </mxGeometry>
        </mxCell>
        <mxCell id="jrNsLkWTCwWAzZKnQkNw-36" value="POWER-UP&lt;div&gt;(abstracta)&lt;/div&gt;" style="html=1;whiteSpace=wrap;" vertex="1" parent="1">
          <mxGeometry x="369" y="-342" width="110" height="50" as="geometry" />
        </mxCell>
        <mxCell id="jrNsLkWTCwWAzZKnQkNw-37" value="" style="endArrow=block;endSize=16;endFill=0;html=1;rounded=0;fontSize=12;curved=1;exitX=0.5;exitY=0;exitDx=0;exitDy=0;" edge="1" parent="1" source="jrNsLkWTCwWAzZKnQkNw-38">
          <mxGeometry width="160" relative="1" as="geometry">
            <mxPoint x="288" y="-423" as="sourcePoint" />
            <mxPoint x="371.9743589743589" y="-292" as="targetPoint" />
          </mxGeometry>
        </mxCell>
        <mxCell id="jrNsLkWTCwWAzZKnQkNw-38" value="MISIL" style="html=1;whiteSpace=wrap;" vertex="1" parent="1">
          <mxGeometry x="214" y="-261" width="110" height="50" as="geometry" />
        </mxCell>
        <mxCell id="jrNsLkWTCwWAzZKnQkNw-39" value="NITRO" style="html=1;whiteSpace=wrap;" vertex="1" parent="1">
          <mxGeometry x="369" y="-252" width="110" height="50" as="geometry" />
        </mxCell>
        <mxCell id="jrNsLkWTCwWAzZKnQkNw-40" value="NAFTA" style="html=1;whiteSpace=wrap;" vertex="1" parent="1">
          <mxGeometry x="509" y="-261" width="110" height="50" as="geometry" />
        </mxCell>
        <mxCell id="jrNsLkWTCwWAzZKnQkNw-41" value="" style="endArrow=block;endSize=16;endFill=0;html=1;rounded=0;fontSize=12;curved=1;exitX=0.5;exitY=0;exitDx=0;exitDy=0;entryX=0.5;entryY=1;entryDx=0;entryDy=0;" edge="1" parent="1" source="jrNsLkWTCwWAzZKnQkNw-39" target="jrNsLkWTCwWAzZKnQkNw-36">
          <mxGeometry width="160" relative="1" as="geometry">
            <mxPoint x="223" y="-392" as="sourcePoint" />
            <mxPoint x="383" y="-392" as="targetPoint" />
          </mxGeometry>
        </mxCell>
        <mxCell id="jrNsLkWTCwWAzZKnQkNw-42" value="" style="endArrow=block;endSize=16;endFill=0;html=1;rounded=0;fontSize=12;curved=1;exitX=0.5;exitY=0;exitDx=0;exitDy=0;entryX=1;entryY=1;entryDx=0;entryDy=0;" edge="1" parent="1" source="jrNsLkWTCwWAzZKnQkNw-40" target="jrNsLkWTCwWAzZKnQkNw-36">
          <mxGeometry width="160" relative="1" as="geometry">
            <mxPoint x="223" y="-392" as="sourcePoint" />
            <mxPoint x="383" y="-392" as="targetPoint" />
          </mxGeometry>
        </mxCell>
        <mxCell id="jrNsLkWTCwWAzZKnQkNw-43" style="edgeStyle=none;curved=1;rounded=0;orthogonalLoop=1;jettySize=auto;html=1;entryX=0.5;entryY=0;entryDx=0;entryDy=0;fontSize=12;startSize=8;endSize=8;" edge="1" parent="1" source="jrNsLkWTCwWAzZKnQkNw-30" target="jrNsLkWTCwWAzZKnQkNw-30">
          <mxGeometry relative="1" as="geometry" />
        </mxCell>
        <mxCell id="jrNsLkWTCwWAzZKnQkNw-53" style="edgeStyle=orthogonalEdgeStyle;rounded=0;orthogonalLoop=1;jettySize=auto;html=1;exitX=0.5;exitY=1;exitDx=0;exitDy=0;entryX=0;entryY=0.75;entryDx=0;entryDy=0;" edge="1" parent="1" source="jrNsLkWTCwWAzZKnQkNw-44" target="jrNsLkWTCwWAzZKnQkNw-38">
          <mxGeometry relative="1" as="geometry" />
        </mxCell>
        <mxCell id="jrNsLkWTCwWAzZKnQkNw-44" value="JUGADOR" style="html=1;whiteSpace=wrap;" vertex="1" parent="1">
          <mxGeometry x="-236" y="-325" width="110" height="50" as="geometry" />
        </mxCell>
        <mxCell id="jrNsLkWTCwWAzZKnQkNw-45" value="" style="endArrow=block;endSize=16;endFill=0;html=1;rounded=0;exitX=0.5;exitY=0;exitDx=0;exitDy=0;entryX=0.5;entryY=1;entryDx=0;entryDy=0;" edge="1" parent="1" source="jrNsLkWTCwWAzZKnQkNw-44" target="jrNsLkWTCwWAzZKnQkNw-24">
          <mxGeometry width="160" relative="1" as="geometry">
            <mxPoint x="-24" y="-283" as="sourcePoint" />
            <mxPoint x="136" y="-283" as="targetPoint" />
          </mxGeometry>
        </mxCell>
        <mxCell id="jrNsLkWTCwWAzZKnQkNw-50" value="0..1" style="text;html=1;align=center;verticalAlign=middle;whiteSpace=wrap;rounded=0;" vertex="1" parent="1">
          <mxGeometry x="355" y="-375" width="60" height="30" as="geometry" />
        </mxCell>
        <mxCell id="jrNsLkWTCwWAzZKnQkNw-52" value="#mi_power-up" style="text;html=1;align=center;verticalAlign=middle;whiteSpace=wrap;rounded=0;" vertex="1" parent="1">
          <mxGeometry x="350" y="-425" width="97" height="30" as="geometry" />
        </mxCell>
        <mxCell id="jrNsLkWTCwWAzZKnQkNw-54" value="0..*" style="text;html=1;align=center;verticalAlign=middle;whiteSpace=wrap;rounded=0;" vertex="1" parent="1">
          <mxGeometry x="154" y="-221" width="60" height="30" as="geometry" />
        </mxCell>
        <mxCell id="jrNsLkWTCwWAzZKnQkNw-58" value="" style="endArrow=block;endSize=16;endFill=0;html=1;rounded=0;entryX=0.25;entryY=1;entryDx=0;entryDy=0;exitX=0.5;exitY=0;exitDx=0;exitDy=0;" edge="1" parent="1" source="jrNsLkWTCwWAzZKnQkNw-59" target="jrNsLkWTCwWAzZKnQkNw-25">
          <mxGeometry width="160" relative="1" as="geometry">
            <mxPoint x="-64" y="-357" as="sourcePoint" />
            <mxPoint x="96" y="-357" as="targetPoint" />
          </mxGeometry>
        </mxCell>
        <mxCell id="jrNsLkWTCwWAzZKnQkNw-59" value="MOTO" style="html=1;whiteSpace=wrap;" vertex="1" parent="1">
          <mxGeometry x="-116" y="-357" width="51" height="27" as="geometry" />
        </mxCell>
        <mxCell id="jrNsLkWTCwWAzZKnQkNw-60" value="AUTO" style="html=1;whiteSpace=wrap;" vertex="1" parent="1">
          <mxGeometry x="20" y="-357" width="54" height="29" as="geometry" />
        </mxCell>
        <mxCell id="jrNsLkWTCwWAzZKnQkNw-65" style="edgeStyle=orthogonalEdgeStyle;rounded=0;orthogonalLoop=1;jettySize=auto;html=1;exitX=0.5;exitY=1;exitDx=0;exitDy=0;entryX=0;entryY=0.75;entryDx=0;entryDy=0;" edge="1" parent="1" source="jrNsLkWTCwWAzZKnQkNw-61" target="jrNsLkWTCwWAzZKnQkNw-36">
          <mxGeometry relative="1" as="geometry" />
        </mxCell>
        <mxCell id="jrNsLkWTCwWAzZKnQkNw-61" value="CAMION" style="html=1;whiteSpace=wrap;" vertex="1" parent="1">
          <mxGeometry x="-46.5" y="-357" width="53" height="27" as="geometry" />
        </mxCell>
        <mxCell id="jrNsLkWTCwWAzZKnQkNw-62" value="" style="endArrow=block;endSize=16;endFill=0;html=1;rounded=0;exitX=0.5;exitY=0;exitDx=0;exitDy=0;entryX=0.5;entryY=1;entryDx=0;entryDy=0;" edge="1" parent="1" source="jrNsLkWTCwWAzZKnQkNw-61" target="jrNsLkWTCwWAzZKnQkNw-25">
          <mxGeometry width="160" relative="1" as="geometry">
            <mxPoint x="-17" y="-257" as="sourcePoint" />
            <mxPoint x="143" y="-257" as="targetPoint" />
          </mxGeometry>
        </mxCell>
        <mxCell id="jrNsLkWTCwWAzZKnQkNw-63" value="" style="endArrow=block;endSize=16;endFill=0;html=1;rounded=0;exitX=0.5;exitY=0;exitDx=0;exitDy=0;entryX=0.75;entryY=1;entryDx=0;entryDy=0;" edge="1" parent="1" source="jrNsLkWTCwWAzZKnQkNw-60" target="jrNsLkWTCwWAzZKnQkNw-25">
          <mxGeometry width="160" relative="1" as="geometry">
            <mxPoint x="-17" y="-257" as="sourcePoint" />
            <mxPoint x="143" y="-257" as="targetPoint" />
          </mxGeometry>
        </mxCell>
        <mxCell id="jrNsLkWTCwWAzZKnQkNw-68" value="0..1" style="text;html=1;align=center;verticalAlign=middle;resizable=0;points=[];autosize=1;strokeColor=none;fillColor=none;" vertex="1" parent="1">
          <mxGeometry x="324" y="-330" width="38" height="26" as="geometry" />
        </mxCell>
        <mxCell id="jrNsLkWTCwWAzZKnQkNw-70" style="edgeStyle=orthogonalEdgeStyle;rounded=0;orthogonalLoop=1;jettySize=auto;html=1;exitX=1;exitY=0.5;exitDx=0;exitDy=0;entryX=0.5;entryY=0;entryDx=0;entryDy=0;" edge="1" parent="1" source="jrNsLkWTCwWAzZKnQkNw-69" target="jrNsLkWTCwWAzZKnQkNw-28">
          <mxGeometry relative="1" as="geometry" />
        </mxCell>
        <mxCell id="jrNsLkWTCwWAzZKnQkNw-73" style="edgeStyle=orthogonalEdgeStyle;rounded=0;orthogonalLoop=1;jettySize=auto;html=1;exitX=0.5;exitY=1;exitDx=0;exitDy=0;entryX=1;entryY=0.25;entryDx=0;entryDy=0;" edge="1" parent="1" source="jrNsLkWTCwWAzZKnQkNw-69" target="jrNsLkWTCwWAzZKnQkNw-25">
          <mxGeometry relative="1" as="geometry" />
        </mxCell>
        <mxCell id="jrNsLkWTCwWAzZKnQkNw-69" value="RUTA" style="html=1;whiteSpace=wrap;" vertex="1" parent="1">
          <mxGeometry x="6.5" y="-800" width="107.5" height="50" as="geometry" />
        </mxCell>
        <mxCell id="jrNsLkWTCwWAzZKnQkNw-71" value="*" style="text;html=1;align=center;verticalAlign=middle;resizable=0;points=[];autosize=1;strokeColor=none;fillColor=none;" vertex="1" parent="1">
          <mxGeometry x="434" y="-792" width="23" height="26" as="geometry" />
        </mxCell>
        <mxCell id="jrNsLkWTCwWAzZKnQkNw-74" value="*" style="text;html=1;align=center;verticalAlign=middle;resizable=0;points=[];autosize=1;strokeColor=none;fillColor=none;" vertex="1" parent="1">
          <mxGeometry x="39" y="-434" width="23" height="26" as="geometry" />
        </mxCell>
        <mxCell id="jrNsLkWTCwWAzZKnQkNw-76" style="edgeStyle=orthogonalEdgeStyle;rounded=0;orthogonalLoop=1;jettySize=auto;html=1;exitX=0.5;exitY=1;exitDx=0;exitDy=0;entryX=0;entryY=0.5;entryDx=0;entryDy=0;" edge="1" parent="1" source="jrNsLkWTCwWAzZKnQkNw-75" target="jrNsLkWTCwWAzZKnQkNw-24">
          <mxGeometry relative="1" as="geometry" />
        </mxCell>
        <mxCell id="jrNsLkWTCwWAzZKnQkNw-75" value="JUEGO" style="html=1;whiteSpace=wrap;" vertex="1" parent="1">
          <mxGeometry x="-459" y="-605" width="110" height="50" as="geometry" />
        </mxCell>
        <mxCell id="jrNsLkWTCwWAzZKnQkNw-77" value="12" style="text;html=1;align=center;verticalAlign=middle;resizable=0;points=[];autosize=1;strokeColor=none;fillColor=none;" vertex="1" parent="1">
          <mxGeometry x="-275" y="-421" width="31" height="26" as="geometry" />
        </mxCell>
        <mxCell id="jrNsLkWTCwWAzZKnQkNw-78" value="LOBO" style="html=1;whiteSpace=wrap;" vertex="1" parent="1">
          <mxGeometry x="380" y="-571" width="110" height="50" as="geometry" />
        </mxCell>
        <mxCell id="jrNsLkWTCwWAzZKnQkNw-79" value="" style="endArrow=block;endSize=16;endFill=0;html=1;rounded=0;exitX=0.5;exitY=0;exitDx=0;exitDy=0;entryX=0.5;entryY=1;entryDx=0;entryDy=0;" edge="1" parent="1" source="jrNsLkWTCwWAzZKnQkNw-78" target="jrNsLkWTCwWAzZKnQkNw-30">
          <mxGeometry width="160" relative="1" as="geometry">
            <mxPoint x="-17" y="-511" as="sourcePoint" />
            <mxPoint x="143" y="-511" as="targetPoint" />
          </mxGeometry>
        </mxCell>
      </root>
    </mxGraphModel>
  </diagram>
</mxfile>
